#!OML:ASF H:\Dans Jumps\Project 1\Capture day 1\Session 1\subject.ASF
:FULLY-SPECIFIED
:DEGREES
81
root 0.62981 17.478 -14.1308 4.73456 -1.13256 -1.60725
lowerback -1.91208 -0.711763 -0.0808713
upperback 2.35543 -1.01105 1.98915
thorax 3.5325 -0.534398 2.04345
lowerneck -13.5462 0.613226 -1.70527
upperneck 28.5416 1.32126 -0.0248899
head 11.5197 0.403099 0.464835
rclavicle 1.4561e-014 -7.15625e-015
rhumerus -21.2736 -13.7448 -81.9202
rradius 27.2294
rwrist 29.2615
rhand -18.7819 -27.1125
rfingers 7.12502
rthumb 7.51565 -56.959
lclavicle 1.4561e-014 -7.15625e-015
lhumerus -20.3909 1.49156 87.0638
lradius 20.8332
lwrist 2.43896
lhand -24.969 -2.71047
lfingers 7.12502
lthumb 1.54149 27.2637
rfemur -12.6028 -2.4862 19.9879
rtibia 23.9443
rfoot -14.588 -3.60747
rtoes 10.0536
lfemur -12.273 9.53572 -18.9281
ltibia 21.7783
lfoot -12.8617 3.3541
ltoes -1.52518
82
root 0.634184 17.4766 -14.1262 4.71354 -1.12111 -1.60356
lowerback -1.90867 -0.726684 -0.0957478
upperback 2.35479 -1.03023 1.98387
thorax 3.5308 -0.544263 2.04542
lowerneck -13.5555 0.609168 -1.70361
upperneck 28.5502 1.31553 -0.0262632
head 11.525 0.400307 0.463337
rclavicle 9.69075e-015 -2.0276e-014
rhumerus -21.3017 -13.8945 -81.8924
rradius 27.1202
rwrist 29.3704
rhand -18.7674 -27.1237
rfingers 7.12502
rthumb 7.52965 -56.9697
lclavicle 9.69075e-015 -2.0276e-014
lhumerus -20.4629 1.32123 87.1271
lradius 20.8665
lwrist 2.52314
lhand -24.9462 -2.76991
lfingers 7.12502
lthumb 1.56348 27.2041
rfemur -12.5854 -2.47339 19.9673
rtibia 23.9918
rfoot -14.6172 -3.63923
rtoes 10.0291
lfemur -12.245 9.5599 -18.9415
ltibia 21.7996
lfoot -12.8933 3.32786
ltoes -1.54844
83
root 0.638551 17.4753 -14.1216 4.69358 -1.10624 -1.60117
lowerback -1.90936 -0.742235 -0.107497
upperback 2.35555 -1.05042 1.97811
thorax 3.53282 -0.554563 2.04505
lowerneck -13.569 0.606607 -1.70065
upperneck 28.5576 1.31191 -0.0283439
head 11.5307 0.39853 0.461661
rclavicle 2.73329e-015 1.94809e-014
rhumerus -21.3299 -14.0467 -81.8657
rradius 27.0111
rwrist 29.4839
rhand -18.746 -27.1436
rfingers 7.12502
rthumb 7.55036 -56.9889
lclavicle 2.73329e-015 1.94809e-014
lhumerus -20.5286 1.15413 87.189
lradius 20.8913
lwrist 2.59448
lhand -24.9189 -2.8396
lfingers 7.12502
lthumb 1.58986 27.1342
rfemur -12.5649 -2.45957 19.9484
rtibia 24.0328
rfoot -14.6442 -3.67743
rtoes 9.98672
lfemur -12.2173 9.57514 -18.9533
ltibia 21.8198
lfoot -12.9229 3.30366
ltoes -1.55394
84
root 0.642734 17.474 -14.1171 4.6778 -1.08676 -1.59824
lowerback -1.91399 -0.758041 -0.119714
upperback 2.35455 -1.07092 1.97184
thorax 3.53528 -0.565015 2.04436
lowerneck -13.5763 0.603278 -1.6997
upperneck 28.5594 1.30708 -0.0288691
head 11.5329 0.396266 0.460676
rclavicle 1.93815e-015 0
rhumerus -21.3664 -14.1972 -81.8388
rradius 26.9067
rwrist 29.5986
rhand -18.724 -27.1671
rfingers 7.12502
rthumb 7.57156 -57.0116
lclavicle 1.93815e-015 0
lhumerus -20.5886 0.998186 87.2481
lradius 20.9052
lwrist 2.65247
lhand -24.8899 -2.91094
lfingers 7.12502
lthumb 1.61789 27.0627
rfemur -12.5456 -2.44318 19.93
rtibia 24.0682
rfoot -14.6694 -3.72302
rtoes 9.94304
lfemur -12.1942 9.57879 -18.9657
ltibia 21.8383
lfoot -12.9492 3.28377
ltoes -1.55049
85
root 0.646771 17.4729 -14.1128 4.66594 -1.06287 -1.59504
lowerback -1.92027 -0.77451 -0.132461
upperback 2.34999 -1.09226 1.96594
thorax 3.53503 -0.575869 2.04429
lowerneck -13.5769 0.600557 -1.6978
upperneck 28.5587 1.30323 -0.0311816
head 11.5329 0.394375 0.458951
rclavicle 1.2921e-015 -1.27222e-014
rhumerus -21.4169 -14.3316 -81.8111
rradius 26.812
rwrist 29.7064
rhand -18.7076 -27.1902
rfingers 7.12502
rthumb 7.58743 -57.0341
lclavicle 1.2921e-015 -1.27222e-014
lhumerus -20.6477 0.862444 87.3038
lradius 20.9109
lwrist 2.69462
lhand -24.8603 -2.95969
lfingers 7.12502
lthumb 1.64652 27.0137
rfemur -12.5274 -2.42759 19.9124
rtibia 24.098
rfoot -14.6933 -3.77426
rtoes 9.88631
lfemur -12.1749 9.57251 -18.979
ltibia 21.8547
lfoot -12.9733 3.26831
ltoes -1.54407
86
root 0.650551 17.4718 -14.1087 4.65709 -1.03876 -1.59372
lowerback -1.92871 -0.78933 -0.144623
upperback 2.34419 -1.11143 1.9609
thorax 3.53465 -0.585637 2.04487
lowerneck -13.5782 0.596802 -1.6953
upperneck 28.5601 1.2981 -0.0344984
head 11.5338 0.391836 0.456598
rclavicle -2.83268e-015 -5.96354e-015
rhumerus -21.4783 -14.4526 -81.7822
rradius 26.7267
rwrist 29.8079
rhand -18.7053 -27.2079
rfingers 7.12502
rthumb 7.58956 -57.0518
lclavicle -2.83268e-015 -5.96354e-015
lhumerus -20.706 0.758293 87.3545
lradius 20.9142
lwrist 2.71427
lhand -24.8319 -2.98118
lfingers 7.12502
lthumb 1.67395 26.992
rfemur -12.5098 -2.40508 19.8982
rtibia 24.122
rfoot -14.7153 -3.83237
rtoes 9.83384
lfemur -12.1589 9.55897 -18.9903
ltibia 21.87
lfoot -12.995 3.26182
ltoes -1.5441
87
root 0.654097 17.471 -14.1048 4.64987 -1.01866 -1.59571
lowerback -1.93895 -0.80117 -0.154604
upperback 2.33831 -1.12674 1.95635
thorax 3.53505 -0.593429 2.0449
lowerneck -13.5789 0.592835 -1.6898
upperneck 28.5619 1.29211 -0.03857
head 11.5347 0.389145 0.453329
rclavicle 1.10822e-014 -2.46493e-014
rhumerus -21.5455 -14.5709 -81.7516
rradius 26.6437
rwrist 29.915
rhand -18.7088 -27.2151
rfingers 7.12502
rthumb 7.5862 -57.059
lclavicle 1.10822e-014 -2.46493e-014
lhumerus -20.7633 0.68295 87.3996
lradius 20.9151
lwrist 2.71919
lhand -24.8104 -2.98236
lfingers 7.12502
lthumb 1.69468 26.9907
rfemur -12.4918 -2.3771 19.8887
rtibia 24.1401
rfoot -14.7342 -3.89217
rtoes 9.78673
lfemur -12.144 9.53959 -18.9981
ltibia 21.8844
lfoot -13.013 3.26729
ltoes -1.54985
88
root 0.657427 17.4704 -14.101 4.64184 -1.00378 -1.59966
lowerback -1.94969 -0.810706 -0.164058
upperback 2.33414 -1.13905 1.95268
thorax 3.53738 -0.599743 2.04567
lowerneck -13.5846 0.590957 -1.68001
upperneck 28.5672 1.28908 -0.0457066
head 11.5381 0.387817 0.448644
rclavicle -1.49089e-015 -2.54444e-014
rhumerus -21.6148 -14.6812 -81.7199
rradius 26.5637
rwrist 30.0234
rhand -18.7017 -27.2248
rfingers 7.12502
rthumb 7.59311 -57.0685
lclavicle -1.49089e-015 -2.54444e-014
lhumerus -20.8177 0.641298 87.4382
lradius 20.9118
lwrist 2.70812
lhand -24.7929 -2.96487
lfingers 7.12502
lthumb 1.71154 27.008
rfemur -12.4715 -2.34459 19.8821
rtibia 24.1528
rfoot -14.7492 -3.95027
rtoes 9.74846
lfemur -12.1269 9.51736 -19.0033
ltibia 21.8971
lfoot -13.0283 3.28356
ltoes -1.55806
89
root 0.660638 17.4699 -14.0972 4.6324 -0.997069 -1.6043
lowerback -1.95921 -0.816406 -0.17355
upperback 2.3306 -1.14623 1.94894
thorax 3.53948 -0.603505 2.04667
lowerneck -13.5933 0.589569 -1.66994
upperneck 28.5761 1.28608 -0.0504267
head 11.5435 0.386802 0.444843
rclavicle 2.37051e-014 -9.54166e-015
rhumerus -21.6823 -14.7954 -81.6862
rradius 26.4769
rwrist 30.1354
rhand -18.6876 -27.2341
rfingers 7.12502
rthumb 7.60667 -57.0773
lclavicle 2.37051e-014 -9.54166e-015
lhumerus -20.8693 0.625115 87.4713
lradius 20.9021
lwrist 2.68545
lhand -24.7806 -2.9449
lfingers 7.12502
lthumb 1.7235 27.0279
rfemur -12.4494 -2.31112 19.8765
rtibia 24.1616
rfoot -14.761 -4.00087
rtoes 9.7178
lfemur -12.1052 9.49435 -19.0071
ltibia 21.9053
lfoot -13.0398 3.30902
ltoes -1.55388
90
root 0.663823 17.4695 -14.0932 4.61869 -0.995889 -1.60584
lowerback -1.96817 -0.819833 -0.186103
upperback 2.33007 -1.15029 1.94455
thorax 3.54431 -0.605811 2.04886
lowerneck -13.6057 0.588565 -1.6619
upperneck 28.5865 1.28355 -0.0526796
head 11.5501 0.386069 0.442393
rclavicle 1.11816e-014 3.97569e-015
rhumerus -21.7437 -14.9126 -81.6514
rradius 26.3826
rwrist 30.2514
rhand -18.661 -27.252
rfingers 7.12502
rthumb 7.63233 -57.0942
lclavicle 1.11816e-014 3.97569e-015
lhumerus -20.9137 0.628783 87.4999
lradius 20.8833
lwrist 2.65692
lhand -24.7688 -2.92027
lfingers 7.12502
lthumb 1.73488 27.0524
rfemur -12.4219 -2.28577 19.8669
rtibia 24.1679
rfoot -14.7726 -4.0371
rtoes 9.69255
lfemur -12.0742 9.47108 -19.0136
ltibia 21.9068
lfoot -13.0479 3.33925
ltoes -1.54154
91
root 0.667033 17.4691 -14.089 4.60295 -0.999782 -1.60191
lowerback -1.97836 -0.821128 -0.202711
upperback 2.33085 -1.15133 1.93838
thorax 3.55112 -0.606708 2.05164
lowerneck -13.6224 0.58947 -1.65423
upperneck 28.601 1.28336 -0.0527468
head 11.5592 0.386584 0.44118
rclavicle -3.57812e-015 -9.54166e-015
rhumerus -21.8019 -15.027 -81.6171
rradius 26.2846
rwrist 30.3622
rhand -18.634 -27.2681
rfingers 7.12502
rthumb 7.65845 -57.1094
lclavicle -3.57812e-015 -9.54166e-015
lhumerus -20.953 0.640822 87.5257
lradius 20.8551
lwrist 2.62777
lhand -24.7517 -2.89493
lfingers 7.12502
lthumb 1.75137 27.0776
rfemur -12.3917 -2.27434 19.8505
rtibia 24.1726
rfoot -14.7847 -4.05516
rtoes 9.66052
lfemur -12.0355 9.45322 -19.0259
ltibia 21.8994
lfoot -13.0533 3.36772
ltoes -1.53282
